<svg id="visual" viewBox="0 0 960 540" width="960" height="540" xmlns="http://www.w3.org/2000/svg" xmlns:xlink="http://www.w3.org/1999/xlink" version="1.1"><rect x="0" y="0" width="960" height="540" fill="#2D4356"></rect><defs><linearGradient id="grad1_0" x1="43.8%" y1="0%" x2="100%" y2="100%"><stop offset="14.444444444444446%" stop-color="#e78895" stop-opacity="1"></stop><stop offset="85.55555555555554%" stop-color="#e78895" stop-opacity="1"></stop></linearGradient></defs><defs><linearGradient id="grad1_1" x1="43.8%" y1="0%" x2="100%" y2="100%"><stop offset="14.444444444444446%" stop-color="#e78895" stop-opacity="1"></stop><stop offset="85.55555555555554%" stop-color="#82668f" stop-opacity="1"></stop></linearGradient></defs><defs><linearGradient id="grad1_2" x1="43.8%" y1="0%" x2="100%" y2="100%"><stop offset="14.444444444444446%" stop-color="#2d4356" stop-opacity="1"></stop><stop offset="85.55555555555554%" stop-color="#82668f" stop-opacity="1"></stop></linearGradient></defs><defs><linearGradient id="grad2_0" x1="0%" y1="0%" x2="56.3%" y2="100%"><stop offset="14.444444444444446%" stop-color="#e78895" stop-opacity="1"></stop><stop offset="85.55555555555554%" stop-color="#e78895" stop-opacity="1"></stop></linearGradient></defs><defs><linearGradient id="grad2_1" x1="0%" y1="0%" x2="56.3%" y2="100%"><stop offset="14.444444444444446%" stop-color="#82668f" stop-opacity="1"></stop><stop offset="85.55555555555554%" stop-color="#e78895" stop-opacity="1"></stop></linearGradient></defs><defs><linearGradient id="grad2_2" x1="0%" y1="0%" x2="56.3%" y2="100%"><stop offset="14.444444444444446%" stop-color="#82668f" stop-opacity="1"></stop><stop offset="85.55555555555554%" stop-color="#2d4356" stop-opacity="1"></stop></linearGradient></defs><g transform="translate(960, 0)"><path d="M0 378C-40.8 324.8 -81.5 271.7 -142.5 246.8C-203.5 222 -284.7 225.4 -327.4 189C-370 152.6 -374 76.3 -378 0L0 0Z" fill="#505677"></path><path d="M0 252C-27.2 216.6 -54.3 181.1 -95 164.5C-135.7 148 -189.8 150.3 -218.2 126C-246.7 101.7 -249.3 50.9 -252 0L0 0Z" fill="#b87599"></path><path d="M0 126C-13.6 108.3 -27.2 90.6 -47.5 82.3C-67.8 74 -94.9 75.1 -109.1 63C-123.3 50.9 -124.7 25.4 -126 0L0 0Z" fill="#e78895"></path></g><g transform="translate(0, 540)"><path d="M0 -378C69.2 -369.9 138.5 -361.8 189 -327.4C239.5 -292.9 271.3 -232 299.6 -173C328 -114 353 -57 378 0L0 0Z" fill="#505677"></path><path d="M0 -252C46.2 -246.6 92.3 -241.2 126 -218.2C159.7 -195.2 180.8 -154.6 199.8 -115.3C218.7 -76 235.3 -38 252 0L0 0Z" fill="#b87599"></path><path d="M0 -126C23.1 -123.3 46.2 -120.6 63 -109.1C79.8 -97.6 90.4 -77.3 99.9 -57.7C109.3 -38 117.7 -19 126 0L0 0Z" fill="#e78895"></path></g></svg>