<svg id="visual" viewBox="0 0 960 540" width="960" height="540" xmlns="http://www.w3.org/2000/svg" xmlns:xlink="http://www.w3.org/1999/xlink" version="1.1"><rect x="0" y="0" width="960" height="540" fill="#FFE4C9"></rect><defs><linearGradient id="grad1_0" x1="43.8%" y1="0%" x2="100%" y2="100%"><stop offset="14.444444444444446%" stop-color="#e78895" stop-opacity="1"></stop><stop offset="85.55555555555554%" stop-color="#e78895" stop-opacity="1"></stop></linearGradient></defs><defs><linearGradient id="grad1_1" x1="43.8%" y1="0%" x2="100%" y2="100%"><stop offset="14.444444444444446%" stop-color="#e78895" stop-opacity="1"></stop><stop offset="85.55555555555554%" stop-color="#f6b7a3" stop-opacity="1"></stop></linearGradient></defs><defs><linearGradient id="grad1_2" x1="43.8%" y1="0%" x2="100%" y2="100%"><stop offset="14.444444444444446%" stop-color="#ffe4c9" stop-opacity="1"></stop><stop offset="85.55555555555554%" stop-color="#f6b7a3" stop-opacity="1"></stop></linearGradient></defs><defs><linearGradient id="grad2_0" x1="0%" y1="0%" x2="56.3%" y2="100%"><stop offset="14.444444444444446%" stop-color="#e78895" stop-opacity="1"></stop><stop offset="85.55555555555554%" stop-color="#e78895" stop-opacity="1"></stop></linearGradient></defs><defs><linearGradient id="grad2_1" x1="0%" y1="0%" x2="56.3%" y2="100%"><stop offset="14.444444444444446%" stop-color="#f6b7a3" stop-opacity="1"></stop><stop offset="85.55555555555554%" stop-color="#e78895" stop-opacity="1"></stop></linearGradient></defs><defs><linearGradient id="grad2_2" x1="0%" y1="0%" x2="56.3%" y2="100%"><stop offset="14.444444444444446%" stop-color="#f6b7a3" stop-opacity="1"></stop><stop offset="85.55555555555554%" stop-color="#ffe4c9" stop-opacity="1"></stop></linearGradient></defs><g transform="translate(960, 0)"><path d="M0 378C-51.4 343.3 -102.8 308.6 -162.5 281.5C-222.2 254.3 -290.1 234.7 -327.4 189C-364.6 143.3 -371.3 71.7 -378 0L0 0Z" fill="#fbceb3"></path><path d="M0 252C-34.3 228.9 -68.6 205.7 -108.3 187.6C-148.1 169.5 -193.4 156.4 -218.2 126C-243.1 95.6 -247.5 47.8 -252 0L0 0Z" fill="#f09f99"></path><path d="M0 126C-17.1 114.4 -34.3 102.9 -54.2 93.8C-74.1 84.8 -96.7 78.2 -109.1 63C-121.5 47.8 -123.8 23.9 -126 0L0 0Z" fill="#e78895"></path></g><g transform="translate(0, 540)"><path d="M0 -378C70.9 -370.9 141.7 -363.7 189 -327.4C236.3 -291 260 -225.4 287.5 -166C315.1 -106.6 346.5 -53.3 378 0L0 0Z" fill="#fbceb3"></path><path d="M0 -252C47.2 -247.2 94.5 -242.5 126 -218.2C157.5 -194 173.3 -150.3 191.7 -110.7C210.1 -71 231 -35.5 252 0L0 0Z" fill="#f09f99"></path><path d="M0 -126C23.6 -123.6 47.2 -121.2 63 -109.1C78.8 -97 86.7 -75.1 95.8 -55.3C105 -35.5 115.5 -17.8 126 0L0 0Z" fill="#e78895"></path></g></svg>